<svg xmlns="http://www.w3.org/2000/svg" xmlns:xlink="http://www.w3.org/1999/xlink" width="500" zoomAndPan="magnify" viewBox="0 0 375 374.999991" height="500" preserveAspectRatio="xMidYMid meet" version="1.0"><defs><g/><clipPath id="7ec220e781"><path d="M 218.902344 238.429688 L 311.660156 238.429688 L 311.660156 276.300781 L 218.902344 276.300781 Z M 218.902344 238.429688 " clip-rule="nonzero"/></clipPath><clipPath id="5090d20604"><path d="M 249.820312 274.027344 C 254.574219 275.398438 259.980469 276.300781 265.28125 276.300781 C 270.585938 276.300781 275.6875 275.527344 280.390625 274.15625 C 280.492188 274.113281 280.59375 274.113281 280.691406 274.070312 C 298.355469 268.574219 311.363281 254.070312 311.613281 238.429688 L 218.902344 238.429688 C 219.152344 254.15625 231.960938 268.660156 249.820312 274.027344 Z M 249.820312 274.027344 " clip-rule="nonzero"/></clipPath></defs><rect x="-37.5" width="450" fill="#ffffff" y="-37.499999" height="449.999989" fill-opacity="1"/><rect x="-37.5" width="450" fill="#ffffff" y="-37.499999" height="449.999989" fill-opacity="1"/><g fill="#004aad" fill-opacity="1"><g transform="translate(57.590482, 231.852081)"><g><path d="M 51.4375 -89.609375 L 51.4375 -78.171875 C 51.4375 -76.953125 50.828125 -76.34375 49.609375 -76.34375 L 21.265625 -76.34375 L 21.265625 -53.375 L 42.75 -53.375 C 43.96875 -53.375 44.578125 -52.765625 44.578125 -51.546875 L 44.578125 -40.125 C 44.578125 -38.90625 43.96875 -38.296875 42.75 -38.296875 L 21.265625 -38.296875 L 21.265625 -1.828125 C 21.265625 -0.609375 20.65625 0 19.4375 0 L 7.546875 0 C 6.328125 0 5.71875 -0.609375 5.71875 -1.828125 L 5.71875 -89.609375 C 5.71875 -90.828125 6.328125 -91.4375 7.546875 -91.4375 L 49.609375 -91.4375 C 50.828125 -91.4375 51.4375 -90.828125 51.4375 -89.609375 Z M 51.4375 -89.609375 "/></g></g></g><g fill="#004aad" fill-opacity="1"><g transform="translate(109.016527, 231.852081)"><g><path d="M 5.71875 -1.828125 L 5.71875 -89.609375 C 5.71875 -90.828125 6.328125 -91.4375 7.546875 -91.4375 L 34.96875 -91.4375 C 40.382812 -91.4375 44.484375 -90.046875 47.265625 -87.265625 C 50.046875 -84.484375 51.4375 -80.390625 51.4375 -74.984375 L 51.4375 -47.09375 C 51.4375 -41.757812 50.046875 -37.679688 47.265625 -34.859375 C 44.484375 -32.035156 40.382812 -30.625 34.96875 -30.625 L 21.265625 -30.625 L 21.265625 -1.828125 C 21.265625 -0.609375 20.65625 0 19.4375 0 L 7.546875 0 C 6.328125 0 5.71875 -0.609375 5.71875 -1.828125 Z M 21.265625 -45.71875 L 31.3125 -45.71875 C 34.363281 -45.71875 35.890625 -47.242188 35.890625 -50.296875 L 35.890625 -71.78125 C 35.890625 -74.820312 34.363281 -76.34375 31.3125 -76.34375 L 21.265625 -76.34375 Z M 21.265625 -45.71875 "/></g></g></g><g fill="#004aad" fill-opacity="1"><g transform="translate(160.442572, 231.852081)"><g><path d="M 22.171875 -91.4375 L 34.96875 -91.4375 C 40.382812 -91.4375 44.484375 -90.046875 47.265625 -87.265625 C 50.046875 -84.484375 51.4375 -80.390625 51.4375 -74.984375 L 51.4375 -62.859375 C 51.4375 -61.640625 50.828125 -61.03125 49.609375 -61.03125 L 37.71875 -61.03125 C 36.5 -61.03125 35.890625 -61.640625 35.890625 -62.859375 L 35.890625 -71.78125 C 35.890625 -74.820312 34.363281 -76.34375 31.3125 -76.34375 L 25.828125 -76.34375 C 22.785156 -76.34375 21.265625 -74.820312 21.265625 -71.78125 L 21.265625 -56 L 48.46875 -47.09375 C 50.445312 -46.25 51.4375 -44.835938 51.4375 -42.859375 L 51.4375 -16.453125 C 51.4375 -11.117188 50.046875 -7.039062 47.265625 -4.21875 C 44.484375 -1.40625 40.382812 0 34.96875 0 L 22.171875 0 C 16.835938 0 12.757812 -1.40625 9.9375 -4.21875 C 7.125 -7.039062 5.71875 -11.117188 5.71875 -16.453125 L 5.71875 -28.453125 C 5.71875 -29.671875 6.328125 -30.28125 7.546875 -30.28125 L 19.4375 -30.28125 C 20.65625 -30.28125 21.265625 -29.671875 21.265625 -28.453125 L 21.265625 -19.65625 C 21.265625 -16.613281 22.785156 -15.09375 25.828125 -15.09375 L 31.3125 -15.09375 C 34.363281 -15.09375 35.890625 -16.613281 35.890625 -19.65625 L 35.890625 -34.859375 L 8.796875 -43.78125 C 6.742188 -44.457031 5.71875 -45.863281 5.71875 -48 L 5.71875 -74.984375 C 5.71875 -80.390625 7.125 -84.484375 9.9375 -87.265625 C 12.757812 -90.046875 16.835938 -91.4375 22.171875 -91.4375 Z M 22.171875 -91.4375 "/></g></g></g><g fill="#004aad" fill-opacity="1"><g transform="translate(211.868612, 231.852081)"><g><path d="M 5.71875 -16.453125 L 5.71875 -74.984375 C 5.71875 -80.390625 7.125 -84.484375 9.9375 -87.265625 C 12.757812 -90.046875 16.835938 -91.4375 22.171875 -91.4375 L 34.96875 -91.4375 C 40.382812 -91.4375 44.484375 -90.046875 47.265625 -87.265625 C 50.046875 -84.484375 51.4375 -80.390625 51.4375 -74.984375 L 51.4375 -16.453125 C 51.4375 -11.117188 50.046875 -7.039062 47.265625 -4.21875 C 44.484375 -1.40625 40.382812 0 34.96875 0 L 22.171875 0 C 16.835938 0 12.757812 -1.40625 9.9375 -4.21875 C 7.125 -7.039062 5.71875 -11.117188 5.71875 -16.453125 Z M 25.484375 -14.75 L 32.125 -14.75 C 35.164062 -14.75 36.6875 -16.269531 36.6875 -19.3125 L 36.6875 -72.125 C 36.6875 -75.164062 35.164062 -76.6875 32.125 -76.6875 L 25.484375 -76.6875 C 22.441406 -76.6875 20.921875 -75.164062 20.921875 -72.125 L 20.921875 -19.3125 C 20.921875 -16.269531 22.441406 -14.75 25.484375 -14.75 Z M 25.484375 -14.75 "/></g></g></g><g fill="#004aad" fill-opacity="1"><g transform="translate(263.294661, 231.852081)"><g><path d="M 22.171875 -91.4375 L 34.96875 -91.4375 C 40.382812 -91.4375 44.484375 -90.046875 47.265625 -87.265625 C 50.046875 -84.484375 51.4375 -80.390625 51.4375 -74.984375 L 51.4375 -62.859375 C 51.4375 -61.640625 50.828125 -61.03125 49.609375 -61.03125 L 37.71875 -61.03125 C 36.5 -61.03125 35.890625 -61.640625 35.890625 -62.859375 L 35.890625 -71.78125 C 35.890625 -74.820312 34.363281 -76.34375 31.3125 -76.34375 L 25.828125 -76.34375 C 22.785156 -76.34375 21.265625 -74.820312 21.265625 -71.78125 L 21.265625 -56 L 48.46875 -47.09375 C 50.445312 -46.25 51.4375 -44.835938 51.4375 -42.859375 L 51.4375 -16.453125 C 51.4375 -11.117188 50.046875 -7.039062 47.265625 -4.21875 C 44.484375 -1.40625 40.382812 0 34.96875 0 L 22.171875 0 C 16.835938 0 12.757812 -1.40625 9.9375 -4.21875 C 7.125 -7.039062 5.71875 -11.117188 5.71875 -16.453125 L 5.71875 -28.453125 C 5.71875 -29.671875 6.328125 -30.28125 7.546875 -30.28125 L 19.4375 -30.28125 C 20.65625 -30.28125 21.265625 -29.671875 21.265625 -28.453125 L 21.265625 -19.65625 C 21.265625 -16.613281 22.785156 -15.09375 25.828125 -15.09375 L 31.3125 -15.09375 C 34.363281 -15.09375 35.890625 -16.613281 35.890625 -19.65625 L 35.890625 -34.859375 L 8.796875 -43.78125 C 6.742188 -44.457031 5.71875 -45.863281 5.71875 -48 L 5.71875 -74.984375 C 5.71875 -80.390625 7.125 -84.484375 9.9375 -87.265625 C 12.757812 -90.046875 16.835938 -91.4375 22.171875 -91.4375 Z M 22.171875 -91.4375 "/></g></g></g><path stroke-linecap="butt" transform="matrix(1.122814, 0, 0, 1.122814, 57.590482, 142.026963)" fill="none" stroke-linejoin="miter" d="M 45.800234 0.20212 L 45.800234 10.367707 C 45.800234 11.460107 45.260991 12.006307 44.185986 12.006307 L 18.935532 12.006307 L 18.935532 32.459244 L 38.073414 32.459244 C 39.148419 32.459244 39.687662 33.005445 39.687662 34.101324 L 39.687662 44.263432 C 39.687662 45.359311 39.148419 45.905511 38.073414 45.905511 L 18.935532 45.905511 L 18.935532 78.360937 C 18.935532 79.453338 18.389332 79.999538 17.296931 79.999538 L 6.710388 79.999538 C 5.631904 79.999538 5.09614 79.453338 5.09614 78.360937 L 5.09614 0.20212 C 5.09614 -0.89028 5.631904 -1.43648 6.710388 -1.43648 L 44.185986 -1.43648 C 45.260991 -1.43648 45.800234 -0.89028 45.800234 0.20212 Z M 50.896943 78.360937 L 50.896943 0.20212 C 50.896943 -0.89028 51.432706 -1.43648 52.511191 -1.43648 L 76.940604 -1.43648 C 81.758995 -1.43648 85.404968 -0.194484 87.875046 2.28951 C 90.359039 4.759587 91.601036 8.405561 91.601036 13.223951 L 91.601036 38.049969 C 91.601036 42.805738 90.359039 46.441274 87.875046 48.960058 C 85.404968 51.461446 81.758995 52.71388 76.940604 52.71388 L 64.736334 52.71388 L 64.736334 78.360937 C 64.736334 79.453338 64.190134 79.999538 63.097734 79.999538 L 52.511191 79.999538 C 51.432706 79.999538 50.896943 79.453338 50.896943 78.360937 Z M 64.736334 39.295445 L 73.684277 39.295445 C 76.401362 39.295445 77.758165 37.935163 77.758165 35.218077 L 77.758165 16.083675 C 77.758165 13.366589 76.401362 12.006307 73.684277 12.006307 L 64.736334 12.006307 Z M 111.358177 -1.43648 L 122.741407 -1.43648 C 127.563276 -1.43648 131.205771 -0.194484 133.675848 2.28951 C 136.159842 4.759587 137.401838 8.405561 137.401838 13.223951 L 137.401838 24.008796 C 137.401838 25.104676 136.862596 25.650876 135.78759 25.650876 L 125.201047 25.650876 C 124.108647 25.650876 123.558968 25.104676 123.558968 24.008796 L 123.558968 16.083675 C 123.558968 13.366589 122.202164 12.006307 119.485079 12.006307 L 114.614504 12.006307 C 111.897419 12.006307 110.537137 13.366589 110.537137 16.083675 L 110.537137 30.124847 L 134.768249 38.049969 C 136.525135 38.811866 137.401838 40.071258 137.401838 41.828144 L 137.401838 65.339106 C 137.401838 70.091396 136.159842 73.730412 133.675848 76.249195 C 131.205771 78.750583 127.563276 79.999538 122.741407 79.999538 L 111.358177 79.999538 C 106.602408 79.999538 102.966871 78.750583 100.448088 76.249195 C 97.9467 73.730412 96.697745 70.091396 96.697745 65.339106 L 96.697745 54.651673 C 96.697745 53.576667 97.233508 53.037425 98.311993 53.037425 L 108.898536 53.037425 C 109.990937 53.037425 110.537137 53.576667 110.537137 54.651673 L 110.537137 62.479383 C 110.537137 65.196468 111.897419 66.55675 114.614504 66.55675 L 119.485079 66.55675 C 122.202164 66.55675 123.558968 65.196468 123.558968 62.479383 L 123.558968 48.960058 L 99.428746 41.007104 C 97.609238 40.394803 96.697745 39.145849 96.697745 37.256761 L 96.697745 13.223951 C 96.697745 8.405561 97.9467 4.759587 100.448088 2.28951 C 102.966871 -0.194484 106.602408 -1.43648 111.358177 -1.43648 Z M 142.498547 65.339106 L 142.498547 13.223951 C 142.498547 8.405561 143.747502 4.759587 146.24889 2.28951 C 148.767674 -0.194484 152.40321 -1.43648 157.158979 -1.43648 L 168.542209 -1.43648 C 173.364079 -1.43648 177.006573 -0.194484 179.476651 2.28951 C 181.960644 4.759587 183.202641 8.405561 183.202641 13.223951 L 183.202641 65.339106 C 183.202641 70.091396 181.960644 73.730412 179.476651 76.249195 C 177.006573 78.750583 173.364079 79.999538 168.542209 79.999538 L 157.158979 79.999538 C 152.40321 79.999538 148.767674 78.750583 146.24889 76.249195 C 143.747502 73.730412 142.498547 70.091396 142.498547 65.339106 Z M 160.091761 66.880296 L 166.006031 66.880296 C 168.723116 66.880296 170.083398 65.520014 170.083398 62.802928 L 170.083398 15.760129 C 170.083398 13.060439 168.723116 11.710594 166.006031 11.710594 L 160.091761 11.710594 C 157.392071 11.710594 156.042226 13.060439 156.042226 15.760129 L 156.042226 62.802928 C 156.042226 65.520014 157.392071 66.880296 160.091761 66.880296 Z M 202.959781 -1.43648 L 214.343011 -1.43648 C 219.164881 -1.43648 222.807375 -0.194484 225.277453 2.28951 C 227.761446 4.759587 229.003443 8.405561 229.003443 13.223951 L 229.003443 24.008796 C 229.003443 25.104676 228.46768 25.650876 227.389195 25.650876 L 216.802652 25.650876 C 215.710251 25.650876 215.164051 25.104676 215.164051 24.008796 L 215.164051 16.083675 C 215.164051 13.366589 213.803769 12.006307 211.086684 12.006307 L 206.216109 12.006307 C 203.499023 12.006307 202.14222 13.366589 202.14222 16.083675 L 202.14222 30.124847 L 226.369853 38.049969 C 228.126739 38.811866 229.003443 40.071258 229.003443 41.828144 L 229.003443 65.339106 C 229.003443 70.091396 227.761446 73.730412 225.277453 76.249195 C 222.807375 78.750583 219.164881 79.999538 214.343011 79.999538 L 202.959781 79.999538 C 198.207491 79.999538 194.568476 78.750583 192.049693 76.249195 C 189.548304 73.730412 188.29935 70.091396 188.29935 65.339106 L 188.29935 54.651673 C 188.29935 53.576667 188.838592 53.037425 189.913597 53.037425 L 200.500141 53.037425 C 201.592541 53.037425 202.14222 53.576667 202.14222 54.651673 L 202.14222 62.479383 C 202.14222 65.196468 203.499023 66.55675 206.216109 66.55675 L 211.086684 66.55675 C 213.803769 66.55675 215.164051 65.196468 215.164051 62.479383 L 215.164051 48.960058 L 191.03383 41.007104 C 189.210843 40.394803 188.29935 39.145849 188.29935 37.256761 L 188.29935 13.223951 C 188.29935 8.405561 189.548304 4.759587 192.049693 2.28951 C 194.568476 -0.194484 198.207491 -1.43648 202.959781 -1.43648 Z M 202.959781 -1.43648 " stroke="#0049ad" stroke-width="0.954309" stroke-opacity="1" stroke-miterlimit="4"/><g clip-path="url(#7ec220e781)"><g clip-path="url(#5090d20604)"><path fill="#5e17eb" d="M 218.902344 238.429688 L 311.660156 238.429688 L 311.660156 276.300781 L 218.902344 276.300781 Z M 218.902344 238.429688 " fill-opacity="1" fill-rule="nonzero"/></g></g></svg>