<?xml version="1.0" standalone="no"?>
<!DOCTYPE svg PUBLIC "-//W3C//DTD SVG 20010904//EN"
 "http://www.w3.org/TR/2001/REC-SVG-20010904/DTD/svg10.dtd">
<svg version="1.0" xmlns="http://www.w3.org/2000/svg"
 width="242.000000pt" height="216.000000pt" viewBox="0 0 242.000000 216.000000"
 preserveAspectRatio="xMidYMid meet">
<metadata>
Created by potrace 1.16, written by Peter Selinger 2001-2019
</metadata>
<g transform="translate(0.000000,216.000000) scale(0.100000,-0.100000)"
fill="none" stroke="#FEEE00" stroke-width="60" stroke-linecap="round" stroke-linejoin="round">
<path d="M450 1957 c0 -137 0 -136 -69 -137 l-24 0 7 -250 7 -249 -83 -3 c-71
-3 -83 -5 -82 -20 1 -13 -10 -18 -52 -24 -56 -7 -80 -27 -68 -57 8 -22 50 -27
235 -27 l169 0 0 -135 c0 -74 -3 -135 -6 -135 -4 0 -21 9 -39 20 -43 26 -94
30 -108 8 -15 -23 17 -57 64 -68 23 -5 -13 -8 -106 -9 -77 -1 -146 -5 -154
-10 -24 -15 -2 -721 22 -721 6 0 8 36 4 103 -4 56 -10 213 -13 348 l-7 246
172 8 c95 4 174 5 175 4 5 -6 13 -611 8 -631 -3 -16 -16 -18 -99 -18 l-96 0
-33 -35 c-21 -23 -42 -35 -61 -36 -22 -1 -17 -5 27 -19 94 -32 680 -26 680 6
0 8 7 14 17 14 14 0 15 12 10 105 -5 88 -3 105 9 105 21 0 21 235 -1 244 -8 3
-15 12 -15 21 0 21 49 20 65 -2 11 -15 15 -15 29 -4 18 15 20 68 9 184 -5 56
-9 67 -24 67 -14 0 -19 -7 -19 -30 0 -27 -3 -30 -29 -30 -28 0 -30 2 -33 48
l-3 47 -103 0 c-56 0 -102 1 -102 2 0 2 44 24 98 49 53 26 114 58 134 70 47
30 50 30 36 -1 -20 -44 13 -73 143 -128 199 -84 202 -86 194 -105 -18 -45 -17
-79 2 -93 16 -11 22 -31 27 -89 3 -41 9 -98 12 -126 5 -46 4 -52 -15 -57 -18
-4 -21 -13 -21 -61 l0 -56 -95 0 c-106 0 -159 -15 -170 -49 -3 -12 -14 -21
-24 -21 -26 0 -71 -38 -71 -60 0 -26 47 -60 82 -60 64 0 90 47 48 85 -26 24
-25 50 2 69 17 12 50 16 144 16 l122 0 7 -29 c5 -23 1 -34 -19 -55 -30 -29
-33 -57 -8 -78 38 -34 112 -30 126 7 7 18 -18 85 -32 85 -14 0 -21 61 -8 66 6
2 54 8 106 13 73 7 102 6 126 -4 36 -15 54 -37 36 -43 -46 -15 -63 -74 -32
-107 34 -36 76 -42 106 -14 33 31 30 56 -9 93 -18 17 -36 39 -40 48 -3 10 -21
27 -39 38 -29 18 -43 20 -125 14 l-93 -7 0 53 c0 43 -3 53 -20 57 -22 6 -28
31 -32 146 -3 76 -3 78 19 72 18 -4 26 3 50 45 32 57 27 55 83 35 45 -16 108
-20 126 -7 15 10 155 239 249 407 43 77 112 196 153 265 75 126 89 148 155
253 58 90 81 154 66 189 -6 15 -17 28 -25 28 -15 0 -62 -56 -128 -155 -26 -38
-49 -71 -51 -73 -1 -2 1 17 6 42 22 117 -31 236 -121 275 -26 11 -70 36 -98
55 -33 22 -69 36 -102 41 -65 9 -76 0 -19 -15 24 -6 64 -20 89 -32 42 -21 43
-22 18 -26 -15 -2 -50 4 -79 12 -29 9 -71 16 -93 15 l-41 -1 35 -9 c19 -5 53
-14 74 -20 l39 -11 -39 -17 c-43 -20 -112 -90 -140 -142 -58 -108 25 -277 151
-311 42 -11 43 -13 38 -42 -9 -50 -20 -63 -70 -86 -27 -12 -65 -30 -85 -41
-20 -11 -56 -26 -80 -33 -24 -8 -51 -17 -60 -21 -11 -4 -18 -3 -18 4 0 6 -31
50 -70 98 -57 71 -68 89 -59 105 7 13 6 26 -4 46 -26 51 -40 97 -41 137 -1 36
-4 40 -30 43 -39 5 -48 -8 -34 -46 11 -28 10 -35 -10 -61 -12 -17 -22 -41 -22
-54 0 -14 -7 -30 -15 -37 -19 -16 -20 -86 -1 -97 8 -4 16 -24 18 -43 l3 -35
57 -3 57 -3 3 53 3 53 63 -79 c34 -43 62 -82 62 -85 0 -4 -38 -18 -85 -32
l-84 -26 -138 67 c-257 126 -371 152 -409 95 -10 -16 -26 -25 -42 -25 -14 0
-34 -8 -45 -17 -20 -17 -20 -17 -14 7 4 14 7 29 7 34 0 5 18 6 40 2 47 -7 55
9 9 18 -59 12 -69 8 -69 -23 0 -57 -31 -86 -43 -41 -5 18 -14 20 -96 20 l-91
0 0 78 c0 44 -3 134 -7 200 -4 89 -3 122 5 122 8 0 12 -26 13 -77 1 -43 4
-105 8 -138 6 -59 7 -60 39 -63 l32 -3 -2 318 -3 318 -42 3 -43 3 0 -124z m60
-85 c0 -110 3 -247 7 -306 5 -92 4 -106 -9 -101 -12 5 -16 42 -22 208 -3 111
-9 246 -13 300 -6 95 -5 97 15 97 22 0 22 -2 22 -198z m1512 32 c72 -37 110
-174 77 -275 -26 -76 -132 -149 -217 -149 -59 0 -132 33 -165 75 l-28 35 37 0
c50 0 110 19 130 42 21 22 7 23 -32 3 -40 -21 -150 -20 -158 1 -30 78 26 197
120 254 61 39 174 45 236 14z m-1570 -156 c-9 -9 -12 -1 -11 33 l1 44 11 -33
c7 -24 7 -36 -1 -44z m1868 42 c0 -28 -28 -85 -81 -165 -83 -127 -180 -287
-284 -470 -178 -315 -237 -413 -256 -431 -16 -15 -26 -15 -76 -5 -63 12 -69
14 -343 125 -102 41 -197 78 -212 81 -36 9 -50 28 -46 62 4 40 37 36 178 -21
327 -133 422 -165 454 -153 17 7 188 263 227 339 42 84 276 470 347 573 64 93
92 112 92 65z m-1896 -201 c4 -116 9 -224 13 -240 5 -26 3 -29 -21 -29 l-26 0
0 143 c0 78 -3 186 -7 240 -6 92 -5 97 14 97 19 0 20 -9 27 -211z m916 27 c0
-25 5 -48 10 -51 6 -3 10 -19 10 -36 0 -27 -2 -29 -40 -29 -35 0 -40 3 -40 23
0 13 9 32 20 42 22 20 27 64 8 83 -9 9 -7 12 10 12 19 0 22 -5 22 -44z m722
-108 c-87 -145 -176 -296 -196 -336 -13 -26 -57 -98 -98 -159 -40 -61 -81
-125 -90 -142 -22 -40 -40 -46 -89 -32 -38 11 -54 31 -25 31 26 0 98 84 155
180 61 105 97 191 132 317 22 81 23 83 58 89 46 9 109 37 141 63 34 28 35 26
12 -11z m-672 -38 c0 -5 -4 -10 -10 -10 -5 0 -10 5 -10 10 0 6 5 10 10 10 6 0
10 -4 10 -10z m-102 -30 c3 -20 -11 -39 -29 -40 -14 0 -19 32 -8 51 13 25 33
20 37 -11z m-373 -93 c29 -22 8 -37 -51 -37 -59 0 -73 18 -31 38 31 15 60 14
82 -1z m445 -7 c0 -16 -7 -20 -34 -20 -19 0 -38 5 -41 10 -11 18 5 30 41 30
27 0 34 -4 34 -20z m-326 -35 l31 -13 -32 -1 c-17 -1 -35 4 -38 9 -3 6 -15 10
-26 10 -10 0 -19 5 -19 11 0 13 34 6 84 -16z m766 -32 c-42 -128 -208 -393
-247 -393 -5 0 -58 30 -118 66 -61 36 -156 90 -212 121 l-103 55 -67 -38
c-116 -63 -308 -163 -315 -164 -5 0 -8 13 -8 28 0 31 5 34 227 114 84 30 114
48 80 48 -13 0 -160 -49 -217 -73 -19 -8 -47 -17 -62 -21 l-28 -6 0 90 0 90
98 1 c53 0 132 4 175 8 83 7 101 19 92 59 -3 12 -3 22 1 22 3 0 59 -26 124
-59 l118 -59 49 13 c104 27 241 74 300 102 34 16 59 25 56 19 -9 -14 -69 -66
-111 -96 l-35 -25 -14 23 c-9 12 -19 22 -24 22 -17 0 -9 -27 15 -49 l24 -23
38 25 c22 13 68 52 104 85 36 33 67 58 68 57 2 -2 -2 -21 -8 -42z m-1000 22
c11 -13 6 -15 -36 -15 -45 1 -48 2 -30 15 25 19 50 19 66 0z m-185 -5 c-4 -6
-82 -10 -201 -10 -123 0 -194 4 -194 10 0 6 74 10 201 10 131 0 198 -3 194
-10z m340 0 c-3 -5 -13 -10 -21 -10 -8 0 -12 5 -9 10 3 6 13 10 21 10 8 0 12
-4 9 -10z m122 -36 c3 -8 2 -19 -3 -23 -5 -5 -226 -11 -492 -15 l-483 -7 3 23
3 23 260 5 c593 12 705 11 712 -6z m-369 -564 l3 -500 -49 0 c-27 0 -69 3 -94
6 l-44 6 4 184 c4 168 -10 591 -25 742 l-6 62 104 0 104 0 3 -500z m489 369
c45 -28 42 -34 -4 -11 -47 23 -93 35 -93 24 0 -5 44 -28 98 -52 205 -91 294
-134 284 -138 -6 -2 -32 6 -59 16 -26 11 -77 31 -113 45 -36 14 -107 42 -159
62 -52 21 -102 34 -114 31 -17 -4 -18 -3 -6 9 8 7 30 22 49 33 38 21 57 18
117 -19z m-757 -141 c19 -11 30 -23 23 -25 -18 -7 -89 16 -103 32 -20 24 38
19 80 -7z m481 -320 c0 -150 4 -311 8 -358 8 -95 0 -112 -36 -74 -19 21 -31
24 -91 24 l-68 0 -1 340 -1 340 94 0 94 0 1 -272z m106 65 c-2 -32 -3 -6 -3
57 0 63 1 89 3 58 2 -32 2 -84 0 -115z m-27 42 l0 -75 -30 0 -30 0 0 68 c0 76
3 82 37 82 22 0 23 -3 23 -75z m436 51 c63 -26 67 -36 37 -82 l-15 -23 -55 24
c-31 14 -58 25 -60 25 -5 0 7 60 14 73 6 11 14 9 79 -17z m-32 -212 c4 -58 10
-112 13 -120 3 -8 1 -14 -5 -14 -10 0 -17 40 -28 163 -4 48 -3 77 3 77 6 0 13
-48 17 -106z m-457 -131 c-2 -32 -3 -8 -3 52 0 61 1 87 3 58 2 -29 2 -78 0
-110z m503 -57 c0 -19 3 -41 6 -50 5 -13 -2 -16 -40 -16 l-46 0 0 50 0 50 40
0 c39 0 40 -1 40 -34z m-30 -118 c0 -25 -3 -29 -10 -18 -13 20 -13 50 0 50 6
0 10 -15 10 -32z m362 -63 c21 -47 -47 -78 -86 -39 -32 32 -11 64 41 64 26 0
36 -6 45 -25z m-688 -1 c45 -44 -24 -76 -75 -35 -20 16 -21 21 -10 35 17 20
65 21 85 0z m360 -6 c22 -32 20 -47 -9 -58 -36 -14 -75 3 -75 33 0 48 56 65
84 25z m-578 -9 c8 -6 14 -18 14 -25 0 -12 -53 -14 -310 -14 l-311 0 16 31 17
31 280 -6 c185 -4 286 -10 294 -17z"/>
<path d="M1760 1845 c0 -8 9 -15 21 -15 11 0 29 -5 41 -11 30 -16 36 0 8 21
-30 24 -70 26 -70 5z"/>
<path d="M1729 1779 c-10 -19 -9 -25 6 -36 23 -16 47 1 43 31 -4 29 -34 32
-49 5z"/>
<path d="M706 2020 c-108 -39 -132 -50 -105 -50 20 0 242 71 254 81 21 20 -46
6 -149 -31z"/>
<path d="M650 1830 c-43 -5 -29 -7 67 -8 72 -1 124 2 128 8 7 11 -104 11 -195
0z"/>
<path d="M594 1709 c-5 -9 -5 -9 146 -43 98 -22 122 -25 108 -10 -12 11 -249
61 -254 53z"/>
<path d="M608 1564 c26 -18 124 -58 196 -79 39 -12 46 -12 37 -1 -6 7 -37 21
-69 31 -31 10 -79 29 -107 42 -59 27 -91 31 -57 7z"/>
</g>
</svg>
