<?xml version="1.0" standalone="no"?>
<!DOCTYPE svg PUBLIC "-//W3C//DTD SVG 20010904//EN"
 "http://www.w3.org/TR/2001/REC-SVG-20010904/DTD/svg10.dtd">
<svg version="1.0" xmlns="http://www.w3.org/2000/svg"
 width="224.000000pt" height="215.000000pt" viewBox="0 0 224.000000 215.000000"
 preserveAspectRatio="xMidYMid meet">
<metadata>
Created by potrace 1.16, written by Peter Selinger 2001-2019
</metadata>
<g transform="translate(0.000000,215.000000) scale(0.100000,-0.100000)"
fill="currentColor" stroke="none">
<path d="M1165 2054 c-32 -8 -68 -20 -80 -28 -11 -7 -45 -16 -75 -20 -103 -13
-187 -70 -251 -169 -44 -68 -57 -129 -40 -199 11 -49 11 -50 -22 -76 -143
-117 -291 -371 -330 -567 -20 -101 -20 -103 -1 -141 43 -88 138 -94 419 -29
39 9 102 22 142 29 l71 13 7 -35 c3 -19 5 -35 3 -37 -2 -1 -34 2 -73 7 -74 9
-138 5 -274 -18 -148 -25 -311 -13 -355 27 -20 18 -37 182 -51 481 -15 343
-29 427 -80 485 -23 27 -24 28 -52 11 -38 -22 -51 -60 -34 -101 42 -102 42
-105 51 -486 9 -370 16 -447 48 -508 17 -31 107 -65 204 -77 101 -12 98 -6 98
-162 0 -94 0 -94 -25 -94 -23 0 -25 -3 -25 -48 l0 -48 -72 -11 c-118 -17 -243
-106 -208 -148 18 -22 92 -20 113 3 22 24 21 34 -3 65 l-21 26 33 18 c23 12
64 18 136 21 117 5 126 -3 72 -65 -37 -41 -38 -58 -5 -79 34 -22 101 -5 117
31 14 30 -10 72 -44 77 -30 4 -38 38 -9 38 12 0 21 -6 21 -12 0 -10 2 -10 8
-1 9 15 187 -1 209 -18 17 -15 17 -34 -2 -49 -8 -7 -15 -20 -15 -30 0 -41 73
-63 106 -31 20 18 25 18 60 6 47 -17 98 -19 125 -5 45 24 5 66 -73 76 -26 4
-48 7 -48 8 0 4 68 192 93 256 15 40 27 59 31 50 13 -35 46 -216 46 -255 0
-56 24 -77 95 -83 53 -4 55 -3 55 20 0 29 -44 58 -88 58 -17 0 -33 4 -36 8 -4
7 -39 204 -53 298 -3 17 9 86 26 154 33 131 40 217 18 226 -8 3 -35 0 -61 -6
-40 -9 -50 -8 -60 4 -13 17 -46 10 -268 -63 -191 -62 -331 -56 -358 14 -10 27
0 106 26 194 27 94 146 322 160 308 3 -3 -3 -62 -12 -131 -10 -69 -15 -129
-11 -132 3 -4 40 9 80 29 74 35 75 35 94 15 20 -19 20 -19 70 21 95 75 281
191 306 191 3 0 7 -23 9 -51 3 -30 12 -57 23 -67 16 -16 17 -16 6 5 -15 29
-15 136 0 110 6 -9 11 -43 12 -74 l2 -57 -37 -9 c-34 -8 -55 -37 -28 -37 6 0
10 4 10 9 0 5 19 12 43 16 23 4 113 22 199 41 86 19 159 34 162 34 3 0 7 -26
9 -57 l3 -58 2 68 c1 44 -2 67 -9 67 -6 0 -68 -13 -138 -29 -69 -16 -142 -32
-162 -35 l-37 -6 -4 59 c-3 40 -11 67 -23 81 -20 23 -20 24 28 51 15 9 17 4
17 -49 0 -65 21 -109 40 -82 20 30 10 138 -16 169 -1 1 -63 -33 -137 -78 -146
-88 -344 -188 -353 -178 -4 3 -23 63 -44 133 -43 144 -44 138 33 201 l39 33
39 -33 c83 -72 135 -92 234 -92 77 0 96 4 135 25 90 51 140 152 140 287 0 87
-22 141 -78 190 l-37 33 47 0 c26 0 58 -4 72 -10 17 -6 26 -6 26 0 0 19 -54
32 -120 29 -83 -2 -100 -1 -100 9 0 16 102 42 164 42 43 0 57 3 46 10 -21 13
-74 11 -145 -6z m-5 -97 c25 -13 58 -41 75 -66 29 -41 30 -48 30 -144 0 -87
-4 -108 -23 -146 l-24 -43 -26 25 c-54 50 -180 94 -197 68 -4 -7 4 -11 19 -11
41 0 133 -40 163 -72 28 -29 28 -30 8 -45 -110 -83 -260 -78 -367 12 -86 72
-107 156 -64 250 46 101 96 148 196 183 78 27 142 24 210 -11z m-975 -230 c31
-67 45 -161 45 -312 1 -302 32 -594 66 -621 58 -44 241 -57 399 -29 93 17 278
20 306 5 12 -7 19 -21 19 -39 0 -27 -2 -28 -77 -39 -43 -7 -114 -19 -158 -27
-305 -56 -553 -31 -591 60 -23 57 -34 194 -34 445 -1 309 -11 422 -45 495 -26
54 -26 64 3 98 25 29 42 20 67 -36z m471 -409 c18 -62 34 -118 34 -123 0 -6
-29 -25 -65 -43 -41 -20 -65 -27 -65 -19 0 21 30 238 36 266 15 62 18 59 60
-81z m564 40 c0 -27 -4 -48 -10 -48 -6 0 -10 27 -10 63 0 44 3 58 10 47 5 -8
10 -36 10 -62z m-420 -159 c-52 -44 -67 -51 -74 -34 -4 10 10 22 47 39 67 32
69 31 27 -5z m185 -298 c-12 -11 -75 -25 -75 -17 0 3 15 10 33 15 43 12 53 13
42 2z m135 -34 c0 -35 -36 -191 -50 -217 -10 -17 -11 -12 -35 119 -20 110 -21
106 23 118 59 17 62 16 62 -20z m-140 -497 c-39 -113 -75 -208 -79 -213 -4 -4
-16 2 -26 13 -10 11 -26 20 -35 20 -9 0 -27 11 -39 24 -18 19 -37 26 -92 31
l-69 7 0 43 c0 52 -8 75 -25 75 -11 0 -15 28 -17 120 -3 114 -2 121 17 124 94
16 222 40 280 51 132 27 128 28 143 -35 l12 -56 -70 -204z m-400 121 l0 -119
-26 -6 c-15 -4 -30 -3 -35 1 -6 6 -13 187 -10 236 1 4 17 7 36 7 l35 0 0 -119z
m38 -188 l3 -43 -80 0 -81 0 0 45 0 46 78 -3 77 -3 3 -42z m603 -103 c18 -10
27 -40 12 -40 -24 0 -83 22 -93 35 -11 13 -7 15 24 15 21 0 46 -5 57 -10z
m-649 -27 c10 -9 18 -22 18 -29 0 -19 -41 -44 -73 -44 -50 0 -48 51 4 77 30
16 29 16 51 -4z m-304 -42 c-6 -29 -98 -34 -98 -5 0 8 14 23 32 34 30 18 33
18 50 3 11 -9 17 -24 16 -32z m597 3 c0 -33 -29 -44 -64 -24 -26 14 -26 24 0
49 30 28 64 14 64 -25z m170 14 c40 -18 23 -33 -38 -33 -61 0 -94 18 -67 35
21 13 74 12 105 -2z"/>
<path d="M1144 1839 c-17 -7 -17 -8 4 -8 30 -1 78 -27 91 -48 6 -10 11 -13 11
-7 1 39 -65 79 -106 63z"/>
<path d="M1177 1764 c-8 -8 2 -55 13 -67 5 -5 17 -6 29 -2 31 10 28 53 -5 65
-30 12 -29 12 -37 4z"/>
<path d="M1130 1724 c0 -11 9 -29 20 -39 11 -10 18 -20 15 -23 -3 -3 -14 3
-25 13 -18 16 -20 17 -20 1 0 -27 44 -41 71 -23 l22 16 -25 11 c-13 6 -32 24
-41 38 -15 25 -16 25 -17 6z"/>
<path d="M1648 2059 c-17 -9 -18 -37 -18 -349 l0 -340 25 0 c24 0 25 3 25 58
0 139 13 252 28 252 15 0 14 -60 -2 -425 -1 -39 -11 -46 -71 -44 -94 2 -95 1
-95 -27 l0 -27 -269 5 c-303 7 -281 12 -281 -72 l0 -47 68 -6 c37 -4 142 -10
233 -13 l166 -7 -5 -396 c-4 -421 -4 -421 -52 -421 -23 0 -90 -59 -90 -79 0
-16 16 -19 152 -24 189 -9 575 -9 606 -1 30 9 28 37 -6 75 -23 25 -38 33 -78
36 l-49 5 0 399 0 398 110 3 110 3 3 73 c2 47 -1 72 -8 72 -6 0 -8 -5 -5 -10
4 -6 3 -36 -1 -66 l-7 -56 -206 6 c-113 3 -367 9 -563 12 l-358 7 0 54 0 55
78 -9 c90 -9 860 -4 965 7 l72 7 -107 2 c-101 1 -108 2 -108 21 0 18 -7 20
-73 20 -41 0 -76 2 -79 5 -2 3 1 58 8 122 17 156 27 415 17 429 -4 6 -26 15
-48 20 l-40 10 -2 114 c-4 160 -7 171 -45 149z m22 -339 c0 -213 -4 -330 -10
-330 -6 0 -10 117 -10 330 0 213 4 330 10 330 6 0 10 -117 10 -330z m50 20 c0
-29 -4 -40 -15 -40 -10 0 -15 10 -15 34 0 29 6 38 28 45 1 1 2 -17 2 -39z m46
-117 c-8 -164 -26 -396 -32 -402 -13 -13 -12 24 2 195 9 111 12 221 9 267 -6
68 -5 77 10 77 16 0 16 -12 11 -137z m124 -440 c0 -10 -35 -13 -135 -15 -74
-1 -147 -2 -162 -2 -18 -1 -29 5 -31 15 -3 15 15 16 162 15 125 -1 166 -4 166
-13z m17 -175 c11 -18 16 -581 6 -698 l-8 -95 -145 -3 c-80 -2 -178 0 -218 3
l-74 7 4 399 3 399 212 0 c159 0 214 -3 220 -12z m101 -821 c18 -7 42 -27 54
-44 l20 -33 -382 0 -381 0 16 22 c8 13 34 33 58 45 40 21 52 22 312 22 184 0
281 -4 303 -12z"/>
<path d="M1416 2032 c16 -14 166 -73 171 -68 3 3 -5 10 -18 15 -13 5 -53 20
-88 35 -68 28 -81 31 -65 18z"/>
<path d="M1455 1869 c22 -4 54 -8 70 -7 29 0 29 0 5 8 -14 4 -45 8 -70 8 l-45
0 40 -9z"/>
<path d="M1460 1670 c-23 -7 -22 -8 10 -8 19 0 55 3 80 7 l45 8 -55 1 c-30 0
-66 -4 -80 -8z"/>
<path d="M1303 1545 c0 -33 2 -45 4 -27 2 18 2 45 0 60 -2 15 -4 0 -4 -33z"/>
<path d="M1492 1489 c-29 -12 -51 -23 -49 -25 5 -5 117 35 117 42 0 7 -13 4
-68 -17z"/>
<path d="M1575 1414 c-19 -15 -22 -21 -9 -15 18 9 52 41 43 41 -2 0 -17 -12
-34 -26z"/>
<path d="M1280 1350 c-12 -23 -17 -39 -11 -35 15 8 44 65 37 72 -2 3 -14 -14
-26 -37z"/>
<path d="M1311 1317 c-13 -21 -12 -21 5 -5 10 10 16 20 13 22 -3 3 -11 -5 -18
-17z"/>
<path d="M1050 1304 c0 -7 9 -22 20 -35 10 -13 19 -19 20 -13 0 7 -9 22 -20
35 -10 13 -19 19 -20 13z"/>
</g>
</svg>
